<?xml version="1.0" encoding="utf-8"?>
<!-- Generator: Adobe Illustrator 27.5.0, SVG Export Plug-In . SVG Version: 6.00 Build 0)  -->
<svg version="1.1" id="Layer_1" xmlns="http://www.w3.org/2000/svg" xmlns:xlink="http://www.w3.org/1999/xlink" x="0px" y="0px"
	 viewBox="0 0 5000 5000" style="enable-background:new 0 0 5000 5000;" xml:space="preserve">
<rect style="fill:#B5E2E2;" width="5000" height="5000"/>
<path style="fill:#24666D;" d="M3918.698,664.362c0,0-34.21,11.206-58.979-2.95V835.41c0,0,28.896-11.205,57.8,4.72
	L3918.698,664.362z"/>
<path style="fill:#24666D;" d="M4070.283,610.101c0.225,1.52,0.457,2.99,0.687,4.438c0.161-1.48,0.323-2.959,0.491-4.438
	c0,0,12.389,60.751,24.187,40.694l0.234,14.17c1.696-1.3,2.714-2.964,2.714-2.964l-1.385,83.462l1.385,83.462
	c0,0-1.018-1.662-2.714-2.964l-0.234,14.169c-11.798-20.055-24.187,40.696-24.187,40.696c-0.168-1.481-0.33-2.959-0.491-4.437
	c-0.229,1.448-0.462,2.912-0.687,4.437c0,0-6.373-56.855-6.211-135.363C4063.91,666.954,4070.283,610.101,4070.283,610.101z"/>
<g>
	<path style="fill:#114149;" d="M4320.574,667.449l0.124,172.057c-57.912,51.672-116.319,62.181-159.389,60.202V600.757
		C4257.148,597.07,4320.574,667.449,4320.574,667.449z"/>
	<path style="fill:#114149;" d="M4093.659,615.483c19.188-7.652,37.577-11.981,54.999-13.814v297.076
		c-33.51-3.559-54.999-13.905-54.999-13.905V615.483z"/>
	<path style="fill:#24666D;" d="M4161.31,600.757v298.951c-4.387-0.198-8.604-0.534-12.651-0.963V601.669
		C4152.936,601.218,4157.154,600.919,4161.31,600.757z"/>
</g>
<path style="fill:#114149;" d="M4072.053,624.843l-1.178-16.515c0,0-42.467-29.487-144.508-20.054c0,0-20.055,1.18-14.747,159.843
	c0,0-11.204,166.327,20.646,164.559c0,0,92.011,11.207,137.428-18.283c0,0,5.309-23.004,3.541-33.031
	C4071.461,851.333,4072.053,624.843,4072.053,624.843z"/>
<path style="fill:#114149;" d="M3751.019,824.487c0,7.989,6.475,14.458,14.465,14.458h90.22c7.986,0,14.46-6.469,14.46-14.458
	v-150.38c0-7.988-6.474-14.462-14.46-14.462h-90.22c-7.99,0-14.465,6.475-14.465,14.462V824.487z"/>
<path style="fill:#114149;" d="M3772.844,882.288c0,7.991,6.475,14.462,14.461,14.462h46.574c7.986,0,14.464-6.472,14.464-14.462
	v-41.263c0-7.985-6.478-14.461-14.464-14.461h-46.574c-7.986,0-14.461,6.477-14.461,14.461V882.288z"/>
<g>
	<path style="fill:#114149;" d="M4773.918,756.773c0,92.839-75.262,168.094-168.1,168.094c-92.84,0-168.1-75.255-168.1-168.094
		c0-92.844,75.26-168.101,168.1-168.101C4698.656,588.672,4773.918,663.928,4773.918,756.773z"/>
	<path style="fill:#24666D;" d="M4511.157,756.769c0,52.283,42.378,94.666,94.661,94.666c52.285,0,94.664-42.382,94.664-94.666
		c0-52.28-42.379-94.668-94.664-94.668C4553.535,662.102,4511.157,704.49,4511.157,756.769z"/>
	<path style="fill:#C5C4C4;" d="M4539.467,756.773c0,36.645,29.703,66.35,66.352,66.35c36.647,0,66.355-29.706,66.355-66.35
		c0-36.647-29.708-66.358-66.355-66.358C4569.17,690.414,4539.467,720.125,4539.467,756.773z"/>
	<path style="fill:#24666D;" d="M4568.068,902.807c0,7.982,6.473,14.458,14.466,14.458h46.569c7.988,0,14.464-6.477,14.464-14.458
		v-41.266c0-7.985-6.476-14.465-14.464-14.465h-46.569c-7.993,0-14.466,6.48-14.466,14.465V902.807z"/>
</g>
<rect x="3790.242" y="891.315" style="fill:#24666D;" width="40.699" height="1509.01"/>
<path style="fill:#24666D;" d="M4626,910h-40v520h-0.541c0,260-36.992,346.128-121.394,477.086
	c-109.683,170.182-326.272,157.125-455.673,149.518c-23.816-1.399-44.385-2.638-61.728-2.638
	c-68.269,0-102.026,35.548-118.324,65.382c-17.104,31.311-18.28,62.67-18.32,63.987L3810.01,2344H3850v-159.624
	c0-2.589,1.969-25.15,14.189-46.833c16.184-28.714,43.962-43.27,82.392-43.27c16.159,0,36.22,1.186,59.401,2.547
	c67.092,3.944,158.995,9.36,248.852-9.425c49.808-10.413,94.377-27.397,132.453-50.55c44.639-27.144,81.878-63.491,110.67-108.166
	c45.362-70.383,77.643-129.489,98.358-204.285c18.966-68.479,27.945-148.395,29.285-264.395H4626V910z"/>
<path style="fill:#24666D;" d="M2944.304,4449.673c-106.299,0-186.774-27.784-239.19-82.582
	c-62.218-65.045-61.361-144.483-61.113-152.347V4064h39v151.522l-0.02,0.434c-0.022,0.624-1.972,69.906,50.757,124.637
	c44.801,46.502,115.646,70.08,210.566,70.08c88.893,0,153.154-22.892,191-68.04c51.262-61.152,37.153-144.761,37.005-145.598
	l-0.3-1.689l-0.009-1.764V2183.557c-1.664-16.658-16.406-185.632,59.775-267.257c28.607-30.653,66.02-45.32,111.174-43.595
	c41.079,1.57,75.274,17.473,101.636,47.268c69.076,78.071,59.493,226.479,58.415,240.506v827.292
	c0.002,0.358,0.44,43.061,19.094,84.51c23.534,52.296,64.928,78.812,123.03,78.812c58.707,0,102.078-25.117,128.906-74.654
	c19.723-36.414,23.547-73.832,23.97-78.679V2697h39v302.151l-0.04,0.625c-0.124,1.929-3.319,47.752-27.948,93.955
	c-23.433,43.959-70.887,96.36-163.888,96.36c-74.26,0-129.287-35.622-159.134-103.015c-21.656-48.898-21.986-97.239-21.99-99.273
	v-828.921l0.068-0.816c0.118-1.426,11.228-144.611-48.738-212.304c-19.289-21.774-43.452-32.924-73.87-34.086
	c-33.797-1.286-60.32,8.913-81.135,31.192c-66.332,71-49.612,235.951-49.435,237.609l0.109,1.029v1.046v2009.43
	c2.272,14.597,13.371,104.751-45.508,175.345C3119.919,4421.968,3045.5,4449.673,2944.304,4449.673z"/>
<path style="fill:#114149;" d="M3873,2698.629c0,29.158-23.621,52.371-52.777,52.371h-0.323c-29.156,0-52.899-23.213-52.899-52.371
	v-384.518c0-29.157,23.743-53.111,52.899-53.111h0.323c29.156,0,52.777,23.954,52.777,53.111V2698.629z"/>
<g>
	<path style="fill:#114149;" d="M2583,3827v171.662c0,47.514,37.985,86.033,85.5,86.033c47.514,0,85.5-38.52,85.5-86.033V3827H2583z
		"/>
</g>
<g>
	<path style="fill:#002A3F;" d="M2710.57,904.475l-646.967-55.129h-686.23c-111.108,0-202.017,90.936-202.017,202.016v2641.717
		c0,111.191,90.908,201.987,202.017,201.879h686.23h722.088c111.284,0,202.043-90.864,202.043-202.024l-75.115-2586.445
		C2912.619,995.259,2821.675,904.475,2710.57,904.475z"/>
	<rect x="1789.754" y="3514.221" style="fill:#022640;" width="622.948" height="274.636"/>
	<g>
		<path style="fill:#022640;" d="M2689.866,1015.179c0,55.248-234.66,100.038-524.129,100.038
			c-289.474,0-524.139-44.791-524.139-100.038c0-55.257,234.665-100.048,524.139-100.048
			C2455.207,915.13,2689.866,959.922,2689.866,1015.179z"/>
	</g>
	<path style="fill:#154B59;" d="M2785.906,847.975h-646.975v112.729h337.174c26.235,0,47.485,21.215,47.485,47.421
		c0,26.246-21.25,47.471-47.485,47.471h-337.174v104.343h663.84c24.559,0,44.661,20.09,44.661,44.656v2215.501
		c0,24.569-20.103,44.655-44.661,44.655h-663.84v68.377c55.845,9.362,98.433,57.776,98.433,116.248
		c0,58.507-42.587,106.97-98.433,116.337v72.748h646.975c111.281,0,202.043-90.862,202.043-202.032V1049.994
		C2987.949,938.764,2897.005,847.975,2785.906,847.975z M2325.409,3696.59c-26.08,0-47.173-21.133-47.173-47.215
		c0-26.027,21.094-47.115,47.173-47.115c26.042,0,47.165,21.088,47.165,47.115C2372.573,3675.457,2351.451,3696.59,2325.409,3696.59
		z"/>
	<path style="fill:#88B5C0;" d="M2119.337,3767.461c-65.235,0-118.044-52.863-118.044-118.086
		c0-65.174,52.81-118.012,118.044-118.012c6.676,0,13.212,0.688,19.595,1.764v-68.377h-700.584
		c-24.559,0-44.648-20.086-44.648-44.655V1204.594c0-24.566,20.09-44.656,44.648-44.656h700.584v-104.343h-376.394
		c-26.208,0-47.475-21.225-47.475-47.471c0-26.206,21.267-47.421,47.475-47.421h376.394V847.975h-686.228
		c-111.111,0-202.022,90.935-202.022,202.02v2586.587c0,111.192,90.911,201.984,202.022,201.879h686.228v-72.748
		C2132.549,3766.76,2126.013,3767.461,2119.337,3767.461z M1913.243,3696.59c-26.039,0-47.18-21.133-47.18-47.215
		c0-26.027,21.141-47.115,47.18-47.115c26.062,0,47.186,21.088,47.186,47.115C1960.429,3675.457,1939.305,3696.59,1913.243,3696.59z
		"/>
	<g>
		<g>
			<path style="fill:#242D3C;" d="M2802.771,1159.938h-663.84h-700.584c-24.559,0-44.648,20.09-44.648,44.656v235.054v1980.447
				c0,7.394,1.991,14.279,5.201,20.441l1433.241-2269.277C2824.248,1164.303,2814.044,1159.938,2802.771,1159.938z"/>
			<path style="fill:#242D3C;" d="M2832.141,1171.259L1398.9,3440.536c7.466,14.301,22.281,24.214,39.448,24.214h700.584h663.84
				c24.559,0,44.661-20.086,44.661-44.655V1439.648v-235.054C2847.433,1191.302,2841.428,1179.453,2832.141,1171.259z"/>
		</g>
	</g>
</g>
<g>
	<g>
		<g>
			<path style="fill:#546F82;" d="M2828.305,1491.054H339.209v1859.549h1149.865c18.948,29.208,54.202,48.923,94.689,48.923
				c40.488,0,75.742-19.715,94.688-48.923h1149.854V1491.054z"/>
			<rect x="395.97" y="1523.532" style="fill:#C1B49F;" width="2375.584" height="1756.923"/>
			<path style="fill:#D0C2A7;" d="M395.97,1488.763v1796.652c0,0,571.604-268.015,1180.326-4.629V1489.107
				C1576.296,1489.107,906.766,1404.39,395.97,1488.763z"/>
			<path style="fill:#DFDAC3;" d="M435.481,1459.011v1796.632c0,0,642.364-262.857,1141.001,25.005l1.689-1791.356
				C1578.172,1489.292,646.278,1339.909,435.481,1459.011z"/>
			<path style="fill:#EEE7D8;" d="M540.874,1235.664l4.06,1786.721c0,0,707.306-69.564,1031.62,258.008l-0.654-1791.101
				C1575.9,1489.292,1031.414,1141.356,540.874,1235.664z"/>
			<path style="fill:#FFFFF9;" d="M761.582,1087.039v1811.529c0,0,462.153-79.406,814.831,382.166l3.748-1795.661
				C1580.161,1485.073,1288.585,1037.397,761.582,1087.039z"/>
		</g>
		<g>
			<path style="fill:#D0C2A7;" d="M2757.938,1497.091v1796.651c0,0-577.638-275.968-1181.67-12.929l6.036-1783.722
				C1582.304,1497.091,2247.146,1412.716,2757.938,1497.091z"/>
			<path style="fill:#DFDAC3;" d="M2722.69,1467.178v1796.639c0,0-647.644-271.114-1146.277,16.742l3.084-1783.611
				C1579.497,1496.947,2511.899,1348.074,2722.69,1467.178z"/>
			<path style="fill:#EEE7D8;" d="M2611.93,1241.83l-4.057,1786.718c0,0-707.08-75.472-1031.391,252.1l1.689-1790.66
				C1578.172,1489.987,2121.39,1147.52,2611.93,1241.83z"/>
		</g>
	</g>
	<g>
		<path style="fill:#DFDAC3;" d="M1543.011,1597.795c-2.758-4.233-68.956-104.801-195.199-206.347
			c-74.041-59.556-153.483-107.018-236.118-141.066c-81.673-33.651-166.644-54.136-253.407-61.272v50.192
			c205.752,17.869,364.273,112.13,464.566,192.522c89.283,71.567,148.074,143.875,173.091,177.362
			c16.055,18.985,33.974,43.31,51.326,73.425l0.163-78.025L1543.011,1597.795z"/>
	</g>
	<g>
		<path style="fill:#DFDAC3;" d="M1543.011,1787.165c-2.754-4.232-68.953-104.802-195.199-206.347
			c-74.04-59.558-153.483-107.02-236.116-141.065c-81.672-33.653-166.643-54.137-253.405-61.273v50.191
			c205.75,17.87,364.271,112.13,464.563,192.522c89.287,71.567,148.074,143.874,173.091,177.362
			c16.055,18.985,33.976,43.309,51.326,73.423l0.163-78.023L1543.011,1787.165z"/>
	</g>
	<g>
		<path style="fill:#DFDAC3;" d="M1543.011,1976.531c-2.754-4.229-68.953-104.799-195.199-206.345
			c-74.04-59.557-153.483-107.021-236.116-141.066c-81.672-33.652-166.643-54.139-253.405-61.272v50.19
			c205.75,17.87,364.271,112.131,464.563,192.523c89.287,71.565,148.074,143.872,173.091,177.362
			c16.055,18.984,33.976,43.311,51.326,73.423l0.163-78.023L1543.011,1976.531z"/>
	</g>
	<g>
		<path style="fill:#DFDAC3;" d="M1543.011,2165.902c-2.754-4.232-68.953-104.801-195.199-206.347
			c-74.04-59.557-153.483-107.019-236.116-141.067c-81.672-33.651-166.643-54.137-253.405-61.272v50.191
			c205.75,17.867,364.271,112.131,464.563,192.523c89.287,71.566,148.074,143.872,173.091,177.361
			c16.055,18.985,33.976,43.31,51.326,73.424l0.163-78.024L1543.011,2165.902z"/>
	</g>
	<g>
		<path style="fill:#DFDAC3;" d="M1537.236,2510.434c-3.042-3.945-76.069-97.604-209-186.292
			c-77.962-52.013-160.46-91.44-245.197-117.183c-83.752-25.445-169.863-37.443-256.825-35.958l3.523,50.02
			c206.289-2.579,370.874,75.651,476.459,145.829c93.994,62.473,157.652,128.705,184.932,159.599
			c17.333,17.329,36.895,39.792,56.304,68.082l-5.313-77.767L1537.236,2510.434z"/>
	</g>
	<g>
		<path style="fill:#DFDAC3;" d="M1537.236,2699.804c-3.042-3.945-76.069-97.608-209-186.29
			c-77.962-52.017-160.46-91.444-245.196-117.188c-83.753-25.441-169.864-37.44-256.826-35.957l3.524,50.018
			c206.288-2.574,370.873,75.655,476.458,145.83c93.994,62.475,157.652,128.707,184.935,159.6
			c17.331,17.33,36.895,39.794,56.301,68.082l-5.313-77.767L1537.236,2699.804z"/>
	</g>
	<g>
		<path style="fill:#DFDAC3;" d="M1537.236,2889.172c-3.041-3.947-76.069-97.607-209-186.29
			c-77.962-52.016-160.46-91.443-245.196-117.186c-83.751-25.446-169.864-37.443-256.826-35.959l3.524,50.018
			c206.288-2.577,370.876,75.653,476.458,145.831c93.997,62.475,157.655,128.706,184.936,159.598
			c17.33,17.331,36.891,39.792,56.3,68.084l-5.313-77.767L1537.236,2889.172z"/>
	</g>
	<g>
		<path style="fill:#DFDAC3;" d="M1537.236,3078.537c-3.042-3.94-76.069-97.605-209-186.286
			c-77.962-52.018-160.462-91.444-245.196-117.19c-83.753-25.442-169.864-37.437-256.826-35.954l3.523,50.016
			c206.285-2.572,370.874,75.656,476.459,145.833c93.994,62.474,157.652,128.708,184.935,159.601
			c17.331,17.325,36.895,39.792,56.301,68.082l-5.313-77.769L1537.236,3078.537z"/>
	</g>
	<g>
		<path style="fill:#DFDAC3;" d="M1537.239,2321.063c-3.047-3.944-76.072-97.604-209.002-186.289
			c-77.962-52.016-160.46-91.443-245.197-117.186c-83.752-25.444-169.863-37.442-256.825-35.958l3.523,50.02
			c206.289-2.579,370.874,75.653,476.459,145.829c93.994,62.476,157.655,128.707,184.935,159.6
			c17.331,17.327,36.892,39.794,56.301,68.084l-5.313-77.769L1537.239,2321.063z"/>
	</g>
	<g>
		<path style="fill:#DFDAC3;" d="M1884.384,1509.206c144.616-56.06,363.441-121.726,584.665-116.224
			c23.795,0.59,47.248,2.031,70.309,4.25l0.984-55.699c-23.094-2.157-46.551-3.566-70.314-4.159
			c-227.792-5.665-452.102,61.563-600.166,118.957c-100.701,39.035-179.614,78.241-225.454,102.641v60.552l6.656-3.008
			C1692.992,1593.735,1776.449,1551.047,1884.384,1509.206z"/>
		<path style="fill:#DFDAC3;" d="M1884.384,1693.291c144.616-56.06,363.441-121.726,584.665-116.224
			c23.795,0.591,47.248,2.034,70.309,4.251l0.984-55.698c-23.094-2.155-46.551-3.566-70.314-4.158
			c-227.792-5.665-452.102,61.562-600.166,118.956c-100.701,39.036-179.615,78.242-225.454,102.642v60.55l6.656-3.008
			C1692.998,1777.818,1776.449,1735.132,1884.384,1693.291z"/>
		<path style="fill:#DFDAC3;" d="M1884.384,1877.373c144.616-56.056,363.441-121.722,584.665-116.221
			c23.795,0.588,47.248,2.03,70.309,4.25l0.984-55.699c-23.094-2.155-46.551-3.566-70.314-4.159
			c-227.792-5.663-452.102,61.562-600.166,118.958c-100.701,39.034-179.615,78.238-225.454,102.64v60.549l6.656-3.007
			C1692.998,1961.904,1776.449,1919.216,1884.384,1877.373z"/>
		<path style="fill:#DFDAC3;" d="M1884.384,2061.459c144.616-56.06,363.441-121.726,584.665-116.223
			c23.795,0.589,47.248,2.032,70.309,4.25l0.984-55.698c-23.094-2.158-46.551-3.565-70.314-4.16
			c-227.792-5.663-452.102,61.563-600.166,118.958c-100.701,39.034-179.615,78.24-225.454,102.64v60.55l6.656-3.006
			C1692.998,2145.986,1776.449,2103.3,1884.384,2061.459z"/>
		<path style="fill:#DFDAC3;" d="M1890.977,2237.438c147.284-45.218,369.134-94.516,589.635-72.606
			c23.715,2.358,47.051,5.537,69.945,9.464l3.913-55.517c-22.935-3.868-46.27-7.017-69.954-9.371
			c-227.05-22.56-454.454,27.89-605.25,74.184c-105.869,32.5-188.573,66.903-234.858,87.696v58.908l8.058-2.973
			C1695.521,2307.596,1781.056,2271.184,1890.977,2237.438z"/>
		<path style="fill:#DFDAC3;" d="M1890.98,2421.521c147.275-45.216,369.13-94.516,589.629-72.604
			c23.721,2.354,47.054,5.534,69.953,9.459l3.905-55.514c-22.935-3.868-46.27-7.017-69.952-9.371
			c-227.048-22.561-454.459,27.889-605.253,74.182c-105.866,32.502-188.57,66.903-234.855,87.696v58.908l8.058-2.975
			C1695.521,2491.68,1781.056,2455.271,1890.98,2421.521z"/>
		<path style="fill:#DFDAC3;" d="M1890.98,2605.605c147.28-45.217,369.13-94.512,589.631-72.604
			c23.718,2.355,47.051,5.535,69.951,9.463l3.905-55.519c-22.933-3.867-46.27-7.017-69.952-9.367
			c-227.048-22.563-454.459,27.887-605.253,74.181c-105.866,32.5-188.57,66.905-234.855,87.696v58.91l8.058-2.978
			C1695.521,2675.766,1781.056,2639.354,1890.98,2605.605z"/>
		<path style="fill:#DFDAC3;" d="M1890.98,2789.69c147.28-45.216,369.13-94.516,589.631-72.604
			c23.718,2.354,47.051,5.535,69.951,9.463l3.907-55.519c-22.935-3.866-46.271-7.015-69.954-9.366
			c-227.05-22.567-454.459,27.885-605.253,74.181c-105.866,32.503-188.57,66.904-234.855,87.694v58.91l8.058-2.977
			C1695.521,2859.849,1781.056,2823.438,1890.98,2789.69z"/>
		<path style="fill:#DFDAC3;" d="M1879.266,2919.926c-105.869,32.504-188.573,66.906-234.858,87.698v58.909l8.058-2.975
			c43.056-19.628,128.591-56.037,238.515-89.787c147.28-45.214,369.13-94.51,589.631-72.602c23.718,2.354,47.051,5.536,69.951,9.462
			l3.907-55.518c-22.935-3.868-46.271-7.015-69.954-9.37C2257.466,2823.186,2030.057,2873.632,1879.266,2919.926z"/>
	</g>
	<g>
		<g>
			<path style="fill:#EF6422;" d="M1699.29,2314.68l74.977,104.399l0.201-1031.814c-64.313,26.066-115.876,50.309-149.992,67.255
				v964.56L1699.29,2314.68z"/>
		</g>
	</g>
</g>
</svg>
